# xmcd
#
# Track frame offsets:
#	150
#	18280
#	31984
#	46511
#	62463
#	79837
#	100445
#	110130
#	132483
#	149795
#	163985
#	179699
#	193066
#	212230
#	228866
#	244867
#
# Disc length: 3491 seconds
#
# Revision: 0
# Processed by: cddbd v1.5.2PL0 Copyright (c) Steve Scherf et al.
# Submitted via: dBpowerAMP V4.0
#
DISCID=eb0da110
DTITLE=Various Artist - Country
DYEAR=2008
DGENRE=Country
TTITLE0=?
TTITLE1=dont think
TTITLE2=?
TTITLE3=?
TTITLE4=?
TTITLE5=?
TTITLE6=?
TTITLE7=?
TTITLE8=?
TTITLE9=?
TTITLE10=?
TTITLE11=Vagabond
TTITLE12=?
TTITLE13=?
TTITLE14=All I want to do
TTITLE15=?
EXTD=Various Country
EXTT0=
EXTT1=
EXTT2=
EXTT3=
EXTT4=
EXTT5=
EXTT6=
EXTT7=
EXTT8=
EXTT9=
EXTT10=
EXTT11=
EXTT12=
EXTT13=
EXTT14=
EXTT15=
PLAYORDER=
